<svg xmlns="https://www.w3.org/2000/svg" viewBox="0 0 512 512" role="img" aria-labelledby="t d">
  <title id="t">Honest Search Evil Logo</title>
  <desc id="d">Stylized devil face icon for Honest Search branding and favicon.</desc>
  <defs>
    <linearGradient id="bg" x1="0" y1="0" x2="1" y2="1">
      <stop offset="0" stop-color="#ff6a1a"/>
      <stop offset="0.55" stop-color="#f43f5e"/>
      <stop offset="1" stop-color="#7f1d1d"/>
    </linearGradient>
    <radialGradient id="shine" cx="0.34" cy="0.23" r="0.9">
      <stop offset="0" stop-color="#ffffff" stop-opacity="0.25"/>
      <stop offset="1" stop-color="#ffffff" stop-opacity="0"/>
    </radialGradient>
  </defs>

  <rect width="512" height="512" rx="110" fill="url(#bg)"/>
  <rect width="512" height="512" rx="110" fill="url(#shine)"/>

  <!-- Horns -->
  <path d="M150 170c-28-46-24-93 8-130 40 19 65 61 59 109-3 22-13 38-30 54z" fill="#240b14"/>
  <path d="M362 170c28-46 24-93-8-130-40 19-65 61-59 109 3 22 13 38 30 54z" fill="#240b14"/>

  <!-- Head -->
  <ellipse cx="256" cy="280" rx="150" ry="138" fill="#1b0a12"/>
  <ellipse cx="256" cy="290" rx="132" ry="118" fill="#2d1320"/>

  <!-- Eyes -->
  <path d="M182 265l56-24-22 52-48-7z" fill="#ffcc4d"/>
  <path d="M330 265l-56-24 22 52 48-7z" fill="#ffcc4d"/>
  <circle cx="205" cy="273" r="7" fill="#3a1b00"/>
  <circle cx="307" cy="273" r="7" fill="#3a1b00"/>

  <!-- Brows -->
  <path d="M166 245l80-34" stroke="#0f0409" stroke-width="12" stroke-linecap="round"/>
  <path d="M346 245l-80-34" stroke="#0f0409" stroke-width="12" stroke-linecap="round"/>

  <!-- Mouth -->
  <path d="M190 334c20 38 112 38 132 0" fill="none" stroke="#ff9a67" stroke-width="12" stroke-linecap="round"/>
  <path d="M224 356l16 24 16-24" fill="#ffd7bf"/>
  <path d="M272 356l16 24 16-24" fill="#ffd7bf"/>
</svg>
